<?xml version="1.0" encoding="UTF-8"?>
<svg version="1.1" xmlns="http://www.w3.org/2000/svg" width="512" height="512">
<path d="M0 0 C5.56344551 3.58066619 9.77240756 8.92659768 11.86328125 15.19921875 C13.03107086 31.26466721 10.52042463 46.6907211 7.82794189 62.4551239 C6.81554846 68.39739922 5.93994613 74.35368153 5.11328125 80.32421875 C4.88974546 81.93104842 4.66582277 83.53782435 4.44140625 85.14453125 C4.3527832 85.78922363 4.26416016 86.43391602 4.17285156 87.09814453 C3.77412303 89.80434149 3.31298044 92.5010236 2.86328125 95.19921875 C51.37328125 95.19921875 99.88328125 95.19921875 149.86328125 95.19921875 C150.52328125 88.26921875 151.18328125 81.33921875 151.86328125 74.19921875 C152.86328125 68.01171875 152.86328125 68.01171875 153.3671875 65.23828125 C153.98265298 61.46794941 154.3969872 57.68411869 154.80078125 53.88671875 C155.57874799 46.67129096 156.40385655 39.46341059 157.30078125 32.26171875 C157.41091553 31.32739014 157.5210498 30.39306152 157.63452148 29.43041992 C160.01363237 10.67147093 160.01363237 10.67147093 165.86328125 5.19921875 C166.52328125 5.19921875 167.18328125 5.19921875 167.86328125 5.19921875 C168.19328125 4.20921875 168.52328125 3.21921875 168.86328125 2.19921875 C170.60546875 1.06640625 170.60546875 1.06640625 172.73828125 0.07421875 C173.78628906 -0.42464844 173.78628906 -0.42464844 174.85546875 -0.93359375 C181.3354194 -3.7323273 190.05804701 -4.26856623 196.73828125 -1.67578125 C203.68313914 2.49113348 209.30969877 7.28145088 211.61328125 15.26171875 C211.87625 16.11894531 212.13921875 16.97617187 212.41015625 17.859375 C213.59695413 26.60689385 211.39348064 35.79857454 210.05078125 44.44921875 C208.24562648 56.31453369 206.6612501 68.19846202 205.1706543 80.10644531 C205.0137915 81.35135742 204.85692871 82.59626953 204.6953125 83.87890625 C204.55843018 84.97960449 204.42154785 86.08030273 204.28051758 87.21435547 C203.90428222 89.9059023 203.40844397 92.53801584 202.86328125 95.19921875 C204.15874374 95.19255692 204.15874374 95.19255692 205.4803772 95.1857605 C213.63123991 95.14563684 221.78206931 95.11521048 229.93300819 95.09559441 C234.12318775 95.08517048 238.31328549 95.07103674 242.50341797 95.04833984 C246.54937923 95.02656178 250.59526194 95.01463966 254.64127731 95.00946426 C256.18259288 95.00577741 257.7239043 94.99857791 259.26518631 94.98775864 C261.42900026 94.97317759 263.59249225 94.97124354 265.75634766 94.97216797 C267.60167587 94.96550613 267.60167587 94.96550613 269.48428345 94.95870972 C277.4885371 95.52843347 283.1109376 99.20274672 288.484375 104.92578125 C293.66019975 112.28630256 293.18205197 122.62528105 291.86328125 131.19921875 C289.17962132 139.12735494 283.98911457 143.64148446 276.63716125 147.31002808 C273.08001878 148.45030015 269.73708923 148.46311748 266.04370117 148.42626953 C265.27243896 148.42656158 264.50117676 148.42685364 263.70654297 148.42715454 C261.16882906 148.42576627 258.63141234 148.4102289 256.09375 148.39453125 C254.32969829 148.39079933 252.5656445 148.3879532 250.80158997 148.38595581 C246.1671879 148.37833345 241.53291194 148.35869696 236.89855957 148.33654785 C232.16611436 148.31605932 227.43364869 148.30694766 222.70117188 148.296875 C213.42181971 148.27544975 204.14256098 148.24133067 194.86328125 148.19921875 C194.80197021 148.93853638 194.74065918 149.677854 194.67749023 150.4395752 C194.55096069 151.90711243 194.55096069 151.90711243 194.421875 153.40429688 C194.33993896 154.3704895 194.25800293 155.33668213 194.17358398 156.33215332 C193.89427855 158.91281688 193.47563529 161.38337746 192.92578125 163.91796875 C191.46262393 170.77855084 190.71159598 177.74204385 189.86328125 184.69921875 C188.92510415 192.39337037 187.9668994 200.03171177 186.35449219 207.61914062 C185.27926595 213.26675041 184.68728198 218.99533017 183.98828125 224.69921875 C182.34658203 237.81307299 180.44695098 250.87072262 178.37646484 263.92431641 C177.82314183 267.45537009 177.28866208 270.98893772 176.7578125 274.5234375 C176.57669922 275.72379639 176.39558594 276.92415527 176.20898438 278.16088867 C175.86033696 280.4745091 175.51389091 282.78846261 175.16992188 285.1027832 C175.01330078 286.13491943 174.85667969 287.16705566 174.6953125 288.23046875 C174.55843018 289.14376953 174.42154785 290.05707031 174.28051758 290.99804688 C173.86328125 293.19921875 173.86328125 293.19921875 172.86328125 295.19921875 C174.2493734 295.189226 174.2493734 295.189226 175.66346741 295.17903137 C184.38793262 295.11882614 193.11232767 295.0731965 201.83695316 295.04378223 C206.32197522 295.02815149 210.80682508 295.00696077 215.29174805 294.97290039 C219.62301251 294.94021422 223.95411172 294.92234625 228.28549004 294.91458702 C229.93484535 294.90906009 231.58419201 294.89826735 233.23347664 294.88202858 C235.55045984 294.86013076 237.86676724 294.8572569 240.18383789 294.85864258 C241.50066055 294.85198074 242.81748322 294.84531891 244.17420959 294.8384552 C251.93140523 295.59705078 257.71264215 299.47876925 262.86328125 305.19921875 C267.51943642 311.87695389 267.82414122 319.29663572 266.86328125 327.19921875 C265.02337324 334.04202271 261.07644546 340.5429958 255.00344849 344.37176514 C246.36105359 348.34029932 237.46706862 347.70372329 228.16796875 347.58984375 C226.36622754 347.5823711 224.56447812 347.57668302 222.76272583 347.57269287 C218.05095456 347.55751702 213.3396869 347.51830594 208.62811279 347.47387695 C203.80813405 347.43274929 198.98807288 347.41464471 194.16796875 347.39453125 C184.73285326 347.35180279 175.29810935 347.2836506 165.86328125 347.19921875 C165.80156235 347.92095276 165.73984344 348.64268677 165.67625427 349.3862915 C165.23374084 354.42802344 164.76000613 359.43349818 163.9609375 364.43359375 C163.79400391 365.49392822 163.62707031 366.5542627 163.45507812 367.64672852 C163.19307617 369.28146118 163.19307617 369.28146118 162.92578125 370.94921875 C161.83536247 377.87929577 160.7461806 384.8019266 159.86328125 391.76171875 C158.97883353 398.592498 157.93341362 405.39518827 156.86328125 412.19921875 C156.69699219 413.27502197 156.53070313 414.3508252 156.359375 415.45922852 C153.93117549 430.70597925 153.93117549 430.70597925 148.86328125 437.19921875 C148.20328125 437.19921875 147.54328125 437.19921875 146.86328125 437.19921875 C146.53328125 438.18921875 146.20328125 439.17921875 145.86328125 440.19921875 C144.12109375 441.33203125 144.12109375 441.33203125 141.98828125 442.32421875 C140.94027344 442.82308594 140.94027344 442.82308594 139.87109375 443.33203125 C133.44437148 446.10777511 125.92542228 446.34206601 119.18359375 444.4453125 C110.52728612 440.72922084 106.48098281 435.8272771 102.61328125 427.51171875 C100.87030554 419.81357605 101.72904622 412.46404719 103.33300781 404.8359375 C104.18355992 400.60667286 104.77151309 396.34613315 105.36328125 392.07421875 C105.55555298 390.70680542 105.55555298 390.70680542 105.75170898 389.31176758 C106.97357047 380.55164199 108.08183199 371.7788466 109.125 362.99560547 C109.30320893 361.49535746 109.48279183 359.99527196 109.66381836 358.49536133 C109.83456414 357.08022414 110.00219804 355.66470695 110.16625977 354.2487793 C110.75062642 349.42452841 110.75062642 349.42452841 111.86328125 347.19921875 C63.35328125 347.19921875 14.84328125 347.19921875 -35.13671875 347.19921875 C-35.13671875 349.83921875 -35.13671875 352.47921875 -35.13671875 355.19921875 C-35.403004 357.57014369 -35.72188035 359.93568305 -36.08984375 362.29296875 C-36.18997772 362.94990723 -36.29011169 363.6068457 -36.39328003 364.28369141 C-36.60812712 365.69201664 -36.82542236 367.09997026 -37.04498291 368.50756836 C-37.63286434 372.2778213 -38.20320227 376.05067467 -38.76953125 379.82421875 C-38.88565765 380.5977771 -39.00178406 381.37133545 -39.12142944 382.16833496 C-39.91173271 387.50331477 -40.61343342 392.84428577 -41.25390625 398.19921875 C-41.34043457 398.91936157 -41.42696289 399.63950439 -41.51611328 400.38146973 C-41.92512295 403.80838642 -42.32158102 407.23599703 -42.70410156 410.66601562 C-45.00279272 430.2482139 -45.00279272 430.2482139 -52.13671875 437.19921875 C-52.79671875 437.19921875 -53.45671875 437.19921875 -54.13671875 437.19921875 C-54.46671875 438.18921875 -54.79671875 439.17921875 -55.13671875 440.19921875 C-62.40086864 445.59544438 -72.17495615 444.8835998 -80.76171875 443.69921875 C-87.41844569 440.74067344 -92.77939041 435.66555232 -96.13671875 429.19921875 C-100.19122763 418.02089989 -96.91909581 405.55105709 -95.13671875 394.19921875 C-94.80507491 392.02227456 -94.47435428 389.84518954 -94.14453125 387.66796875 C-93.50812283 383.48629378 -92.85821181 379.30707218 -92.19921875 375.12890625 C-90.74904711 365.83330602 -89.45367926 356.51443808 -88.13671875 347.19921875 C-89.50068787 347.19375031 -89.50068787 347.19375031 -90.89221191 347.18817139 C-99.48416468 347.15022035 -108.07574061 347.09328698 -116.66742706 347.01531601 C-121.08396334 346.97589709 -125.5003019 346.94368138 -129.91699219 346.92822266 C-134.18366773 346.91301904 -138.44979953 346.87850849 -142.7162323 346.83090973 C-144.33956664 346.81613396 -145.96297864 346.80817993 -147.58638 346.8073349 C-157.55521854 346.79693211 -164.90191454 346.6012132 -172.88671875 339.88671875 C-179.63780053 331.82292662 -180.78653642 324.52273718 -180.13671875 314.19921875 C-178.97226923 307.76803882 -175.1898644 302.27599389 -170.13671875 298.19921875 C-161.8903624 292.65616386 -152.0450041 293.5943676 -142.5390625 293.58984375 C-140.73587063 293.57484551 -138.93269242 293.55811494 -137.12953186 293.53973389 C-132.40975273 293.4962325 -127.69015888 293.47609964 -122.97021484 293.46099854 C-118.14344404 293.44136511 -113.31687151 293.39940227 -108.49023438 293.359375 C-99.03912392 293.28425955 -89.58805824 293.23385534 -80.13671875 293.19921875 C-78.97239888 287.59959942 -77.89898852 282.03680211 -77.20703125 276.35546875 C-77.05363281 275.12272217 -76.90023437 273.88997559 -76.7421875 272.61987305 C-76.50435547 270.67914917 -76.50435547 270.67914917 -76.26171875 268.69921875 C-74.4827119 254.48855435 -72.38062531 240.34415708 -70.13671875 226.19921875 C-67.56725923 209.94186696 -65.22971636 193.67012464 -63.08203125 177.3515625 C-62.22986311 170.88046494 -61.35655908 164.41281428 -60.44921875 157.94921875 C-60.3298999 157.07998779 -60.21058105 156.21075684 -60.08764648 155.31518555 C-59.25374808 149.4332774 -59.25374808 149.4332774 -58.13671875 147.19921875 C-59.55706421 147.2092115 -59.55706421 147.2092115 -61.00610352 147.21940613 C-69.95098996 147.28035007 -78.89583401 147.325255 -87.84088135 147.35465527 C-92.4390939 147.37027862 -97.03713818 147.39145577 -101.63525391 147.42553711 C-106.07674808 147.45824973 -110.51808088 147.47609679 -114.95968628 147.48385048 C-116.65008075 147.48937269 -118.34046688 147.50015609 -120.03079224 147.51640892 C-122.40743764 147.53834193 -124.78342514 147.54117914 -127.16015625 147.53979492 C-127.85140091 147.55058075 -128.54264557 147.56136658 -129.25483704 147.57247925 C-134.51144539 147.53957799 -138.36484473 146.214443 -143.13671875 144.19921875 C-143.13671875 143.53921875 -143.13671875 142.87921875 -143.13671875 142.19921875 C-144.12671875 142.19921875 -145.11671875 142.19921875 -146.13671875 142.19921875 C-147.671875 140.625 -147.671875 140.625 -149.19921875 138.51171875 C-149.70582031 137.82722656 -150.21242188 137.14273438 -150.734375 136.4375 C-155.29639321 129.15606146 -155.27109001 120.71568173 -153.56640625 112.42578125 C-152.36264649 108.6117635 -151.0131016 105.0756016 -148.13671875 102.19921875 C-147.47671875 102.19921875 -146.81671875 102.19921875 -146.13671875 102.19921875 C-146.13671875 101.53921875 -146.13671875 100.87921875 -146.13671875 100.19921875 C-139.18208815 95.97189427 -134.0452523 95.04734101 -125.8581543 95.08569336 C-125.03812424 95.08554733 -124.21809418 95.08540131 -123.37321472 95.08525085 C-120.67326171 95.08594535 -117.9733784 95.09371605 -115.2734375 95.1015625 C-113.3972833 95.10342832 -111.52112862 95.10485145 -109.64497375 95.10585022 C-104.71469775 95.10966245 -99.78445135 95.11948168 -94.85418701 95.1305542 C-89.82011312 95.14079616 -84.78603444 95.14535381 -79.75195312 95.15039062 C-69.88019535 95.16110511 -60.00845951 95.17816599 -50.13671875 95.19921875 C-50.009021 93.88621292 -49.88132324 92.57320709 -49.74975586 91.22041321 C-48.85591185 82.10568608 -47.94657884 73.00411161 -46.69921875 63.9296875 C-46.57361572 62.99473953 -46.4480127 62.05979156 -46.31860352 61.09651184 C-45.92781003 58.1928088 -45.53242098 55.28975643 -45.13671875 52.38671875 C-44.74335201 49.4741051 -44.35092304 46.5613663 -43.95864868 43.64860535 C-43.7049762 41.77199889 -43.44962034 39.89561912 -43.19247437 38.01948547 C-42.62936598 33.90631878 -42.08005915 29.79396176 -41.59619141 25.6706543 C-41.47195801 24.64365166 -41.47195801 24.64365166 -41.34521484 23.59590149 C-41.13155107 21.81263836 -40.92785684 20.02818822 -40.72509766 18.24365234 C-39.20795254 10.39352805 -34.62438011 4.91537606 -28.26171875 0.35546875 C-19.54983823 -4.38481918 -8.798831 -4.58440006 0 0 Z M-5.13671875 148.19921875 C-8.88139082 170.66252791 -8.88139082 170.66252791 -12.13671875 193.19921875 C-12.75047372 197.20152009 -13.37407625 201.20081756 -14.01171875 205.19921875 C-15.81204119 216.64619785 -17.33280104 228.11667989 -18.74169922 239.6171875 C-19.38931218 244.81983682 -20.03342366 249.98233904 -21.12109375 255.11328125 C-22.44062477 261.34803325 -23.19867506 267.66063772 -23.99658203 273.97851562 C-24.26393857 276.09176475 -24.5378506 278.20409382 -24.8125 280.31640625 C-25.79361043 287.73293854 -25.79361043 287.73293854 -26.13671875 295.19921875 C22.04328125 295.19921875 70.22328125 295.19921875 119.86328125 295.19921875 C122.2923102 283.05407399 124.55568117 271.30737771 125.98828125 259.07421875 C126.88387234 251.58382053 127.7999223 244.1817005 129.36767578 236.80126953 C130.44477143 231.14625209 131.03835258 225.41067938 131.73828125 219.69921875 C133.38010161 206.5843968 135.27735412 193.52465884 137.34570312 180.46972656 C138.2795592 174.56881339 139.19728052 168.66542525 140.11328125 162.76171875 C140.28859375 161.64692139 140.46390625 160.53212402 140.64453125 159.38354492 C140.804375 158.35463135 140.96421875 157.32571777 141.12890625 156.265625 C141.27102539 155.35756104 141.41314453 154.44949707 141.55957031 153.51391602 C141.92832861 151.09255749 141.92832861 151.09255749 141.86328125 148.19921875 C93.35328125 148.19921875 44.84328125 148.19921875 -5.13671875 148.19921875 Z " fill="#FEC200" transform="translate(199.13671875,34.80078125)"/>
</svg>
